<svg width="192" height="40" viewBox="0 0 192 40" fill="none" xmlns="http://www.w3.org/2000/svg">
<g id="Logo">
<path d="M24.6796 0C25.8632 0 26.9685 0.594143 27.6251 1.58329L39.2549 19.1043C39.6425 19.6883 39.8494 20.3746 39.8494 21.0765V34.1284C39.8494 35.8873 37.5781 36.5781 36.6066 35.1145L21.4093 12.2189C20.7087 11.1633 19.1644 11.1633 18.4638 12.2189L14.6081 18.0277C13.8153 19.222 13.8153 20.778 14.6081 21.9723L24.7396 37.2361C25.5237 38.4175 24.6805 40 23.2668 40H15.1935C14.0099 40 12.9046 39.4059 12.248 38.4167L1.33285 21.9723C0.540093 20.778 0.540093 19.222 1.33285 18.0277L12.248 1.58329C12.9046 0.594143 14.0099 0 15.1935 0H24.6796Z" fill="white"/>
<path d="M62.4087 32V8.72727H66.6246V28.4659H76.8746V32H62.4087Z" fill="white"/>
<path d="M87.9656 32.3409C86.261 32.3409 84.7837 31.9659 83.5337 31.2159C82.2837 30.4659 81.314 29.4167 80.6246 28.0682C79.9428 26.7197 79.6019 25.1439 79.6019 23.3409C79.6019 21.5379 79.9428 19.9583 80.6246 18.6023C81.314 17.2462 82.2837 16.1932 83.5337 15.4432C84.7837 14.6932 86.261 14.3182 87.9656 14.3182C89.6701 14.3182 91.1474 14.6932 92.3974 15.4432C93.6474 16.1932 94.6133 17.2462 95.2951 18.6023C95.9845 19.9583 96.3292 21.5379 96.3292 23.3409C96.3292 25.1439 95.9845 26.7197 95.2951 28.0682C94.6133 29.4167 93.6474 30.4659 92.3974 31.2159C91.1474 31.9659 89.6701 32.3409 87.9656 32.3409ZM87.9883 29.0455C88.9125 29.0455 89.6853 28.7917 90.3065 28.2841C90.9277 27.7689 91.3898 27.0795 91.6928 26.2159C92.0034 25.3523 92.1587 24.3902 92.1587 23.3295C92.1587 22.2614 92.0034 21.2955 91.6928 20.4318C91.3898 19.5606 90.9277 18.8674 90.3065 18.3523C89.6853 17.8371 88.9125 17.5795 87.9883 17.5795C87.0413 17.5795 86.2534 17.8371 85.6246 18.3523C85.0034 18.8674 84.5375 19.5606 84.2269 20.4318C83.9239 21.2955 83.7724 22.2614 83.7724 23.3295C83.7724 24.3902 83.9239 25.3523 84.2269 26.2159C84.5375 27.0795 85.0034 27.7689 85.6246 28.2841C86.2534 28.7917 87.0413 29.0455 87.9883 29.0455Z" fill="white"/>
<path d="M107.434 32.3409C105.692 32.3409 104.196 31.9583 102.946 31.1932C101.703 30.428 100.745 29.3712 100.071 28.0227C99.404 26.6667 99.0707 25.1061 99.0707 23.3409C99.0707 21.5682 99.4116 20.0038 100.093 18.6477C100.775 17.2841 101.737 16.2235 102.98 15.4659C104.23 14.7008 105.707 14.3182 107.412 14.3182C108.828 14.3182 110.082 14.5795 111.173 15.1023C112.271 15.6174 113.146 16.3485 113.798 17.2955C114.449 18.2348 114.821 19.3333 114.912 20.5909H110.98C110.821 19.75 110.442 19.0492 109.843 18.4886C109.252 17.9205 108.461 17.6364 107.468 17.6364C106.627 17.6364 105.889 17.8636 105.252 18.3182C104.616 18.7652 104.12 19.4091 103.764 20.25C103.415 21.0909 103.241 22.0985 103.241 23.2727C103.241 24.4621 103.415 25.4848 103.764 26.3409C104.112 27.1894 104.601 27.8447 105.23 28.3068C105.866 28.7614 106.612 28.9886 107.468 28.9886C108.074 28.9886 108.616 28.875 109.093 28.6477C109.578 28.4129 109.984 28.0758 110.309 27.6364C110.635 27.197 110.859 26.6629 110.98 26.0341H114.912C114.813 27.2689 114.449 28.3636 113.821 29.3182C113.192 30.2652 112.336 31.0076 111.252 31.5455C110.169 32.0758 108.896 32.3409 107.434 32.3409Z" fill="white"/>
<path d="M122.039 26.5227L122.028 21.5568H122.687L128.96 14.5455H133.767L126.051 23.1364H125.199L122.039 26.5227ZM118.289 32V8.72727H122.403V32H118.289ZM129.244 32L123.562 24.0568L126.335 21.1591L134.164 32H129.244Z" fill="white"/>
<path d="M136.69 32V8.72727H145.599C147.281 8.72727 148.679 8.99242 149.792 9.52273C150.913 10.0455 151.751 10.7614 152.304 11.6705C152.864 12.5795 153.145 13.6098 153.145 14.7614C153.145 15.7083 152.963 16.5189 152.599 17.1932C152.235 17.8598 151.747 18.4015 151.133 18.8182C150.52 19.2348 149.834 19.5341 149.076 19.7159V19.9432C149.902 19.9886 150.694 20.2424 151.451 20.7045C152.217 21.1591 152.842 21.803 153.326 22.6364C153.811 23.4697 154.054 24.4773 154.054 25.6591C154.054 26.8636 153.762 27.947 153.179 28.9091C152.595 29.8636 151.717 30.6174 150.542 31.1705C149.368 31.7235 147.891 32 146.11 32H136.69ZM140.906 28.4773H145.44C146.97 28.4773 148.073 28.1856 148.747 27.6023C149.429 27.0114 149.77 26.2538 149.77 25.3295C149.77 24.6402 149.599 24.0189 149.258 23.4659C148.917 22.9053 148.432 22.4659 147.804 22.1477C147.175 21.822 146.425 21.6591 145.554 21.6591H140.906V28.4773ZM140.906 18.625H145.076C145.804 18.625 146.459 18.4924 147.042 18.2273C147.626 17.9545 148.084 17.572 148.417 17.0795C148.758 16.5795 148.929 15.9886 148.929 15.3068C148.929 14.4053 148.61 13.6629 147.974 13.0795C147.345 12.4962 146.41 12.2045 145.167 12.2045H140.906V18.625Z" fill="white"/>
<path d="M165.153 32.3409C163.449 32.3409 161.971 31.9659 160.721 31.2159C159.471 30.4659 158.502 29.4167 157.812 28.0682C157.13 26.7197 156.789 25.1439 156.789 23.3409C156.789 21.5379 157.13 19.9583 157.812 18.6023C158.502 17.2462 159.471 16.1932 160.721 15.4432C161.971 14.6932 163.449 14.3182 165.153 14.3182C166.858 14.3182 168.335 14.6932 169.585 15.4432C170.835 16.1932 171.801 17.2462 172.483 18.6023C173.172 19.9583 173.517 21.5379 173.517 23.3409C173.517 25.1439 173.172 26.7197 172.483 28.0682C171.801 29.4167 170.835 30.4659 169.585 31.2159C168.335 31.9659 166.858 32.3409 165.153 32.3409ZM165.176 29.0455C166.1 29.0455 166.873 28.7917 167.494 28.2841C168.115 27.7689 168.577 27.0795 168.88 26.2159C169.191 25.3523 169.346 24.3902 169.346 23.3295C169.346 22.2614 169.191 21.2955 168.88 20.4318C168.577 19.5606 168.115 18.8674 167.494 18.3523C166.873 17.8371 166.1 17.5795 165.176 17.5795C164.229 17.5795 163.441 17.8371 162.812 18.3523C162.191 18.8674 161.725 19.5606 161.414 20.4318C161.111 21.2955 160.96 22.2614 160.96 23.3295C160.96 24.3902 161.111 25.3523 161.414 26.2159C161.725 27.0795 162.191 27.7689 162.812 28.2841C163.441 28.7917 164.229 29.0455 165.176 29.0455Z" fill="white"/>
<path d="M179.716 14.5455L183.238 20.9886L186.818 14.5455H191.17L185.909 23.2727L191.261 32H186.931L183.238 25.7159L179.579 32H175.216L180.534 23.2727L175.352 14.5455H179.716Z" fill="white"/>
</g>
</svg>
